<?xml version="1.0" encoding="UTF-8"?><svg id="a" xmlns="http://www.w3.org/2000/svg" viewBox="0 0 38 38"><defs><style>.b{fill:#e00;}.c{fill:#fff;}</style></defs><g><path class="c" d="M28,37c4.97,0,9-4.03,9-9V10c0-4.97-4.03-9-9-9H10C5.03,1,1,5.03,1,10V28c0,4.97,4.03,9,9,9H28Z"/><path d="M28,2.25c4.27,0,7.75,3.48,7.75,7.75V28c0,4.27-3.48,7.75-7.75,7.75H10c-4.27,0-7.75-3.48-7.75-7.75V10c0-4.27,3.48-7.75,7.75-7.75H28m0-1.25H10C5.03,1,1,5.03,1,10V28c0,4.97,4.03,9,9,9H28c4.97,0,9-4.03,9-9V10c0-4.97-4.03-9-9-9h0Z"/></g><g><path d="M21,20.21c-.08,0-.17-.02-.25-.05-.4-.17-.78-.4-1.13-.66-.28-.21-.33-.6-.12-.88,.21-.28,.6-.33,.88-.12,.27,.2,.56,.38,.87,.51,.32,.14,.46,.51,.32,.82-.1,.23-.33,.37-.57,.37Z"/><path d="M16,25.62c-.19,0-.38-.09-.5-.25-.21-.28-.15-.67,.12-.88,1.11-.84,1.75-2.11,1.75-3.5v-6c0-3.1,2.52-5.62,5.62-5.62s5.62,2.52,5.62,5.62c0,.38-.04,.76-.11,1.12-.07,.34-.4,.56-.74,.49-.34-.07-.56-.4-.49-.74,.06-.29,.09-.58,.09-.88,0-2.41-1.96-4.38-4.38-4.38s-4.38,1.96-4.38,4.38v6c0,1.79-.82,3.43-2.25,4.5-.11,.08-.24,.13-.38,.13Z"/><path d="M13,26.62c-3.1,0-5.62-2.52-5.62-5.62s2.52-5.62,5.62-5.62c1.23,0,2.4,.39,3.38,1.13,.28,.21,.33,.6,.12,.88-.21,.28-.6,.33-.88,.12-.76-.57-1.67-.87-2.62-.87-2.41,0-4.38,1.96-4.38,4.38s1.96,4.38,4.38,4.38c.3,0,.59-.03,.88-.09,.34-.07,.67,.15,.74,.49,.07,.34-.15,.67-.49,.74-.37,.07-.75,.11-1.12,.11Z"/></g><path class="b" d="M23,23.62c-.34,0-.62-.28-.62-.62v-7c0-.35,.28-.62,.62-.62s.62,.28,.62,.62v7c0,.35-.28,.62-.62,.62Z"/><path class="b" d="M27,19.62c-.16,0-.32-.06-.44-.18l-4-4c-.24-.24-.24-.64,0-.88,.24-.24,.64-.24,.88,0l4,4c.24,.24,.24,.64,0,.88-.12,.12-.28,.18-.44,.18Z"/><g><circle class="c" cx="23" cy="25" r="2"/><path class="b" d="M23,27.62c-1.45,0-2.62-1.18-2.62-2.62s1.18-2.62,2.62-2.62,2.62,1.18,2.62,2.62-1.18,2.62-2.62,2.62Zm0-4c-.76,0-1.38,.62-1.38,1.38s.62,1.38,1.38,1.38,1.38-.62,1.38-1.38-.62-1.38-1.38-1.38Z"/></g><g><circle class="c" cx="23" cy="15" r="2"/><path class="b" d="M23,17.62c-1.45,0-2.62-1.18-2.62-2.62s1.18-2.62,2.62-2.62,2.62,1.18,2.62,2.62-1.18,2.62-2.62,2.62Zm0-4c-.76,0-1.38,.62-1.38,1.38s.62,1.38,1.38,1.38,1.38-.62,1.38-1.38-.62-1.38-1.38-1.38Z"/></g><g><circle class="c" cx="28" cy="20" r="2"/><path class="b" d="M28,22.62c-1.45,0-2.62-1.18-2.62-2.62s1.18-2.62,2.62-2.62,2.62,1.18,2.62,2.62-1.18,2.62-2.62,2.62Zm0-4c-.76,0-1.38,.62-1.38,1.38s.62,1.38,1.38,1.38,1.38-.62,1.38-1.38-.62-1.38-1.38-1.38Z"/></g><path d="M12.03,28.52c-.16,0-.32-.06-.44-.18-.24-.24-.24-.64,0-.88l1.56-1.56-1.56-1.56c-.24-.24-.24-.64,0-.88s.64-.24,.88,0l2,2c.24,.24,.24,.64,0,.88l-2,2c-.12,.12-.28,.18-.44,.18Z"/></svg>